<svg width="26" height="26" viewBox="0 0 28 28" fill="none" xmlns="http://www.w3.org/2000/svg">
    <path d="M2.91663 4.08333H5.33587C5.62246 4.08333 5.8666 4.29151 5.91188 4.5745L7.8523 16.7018C8.03342 17.8337 9.00997 18.6664 10.1563 18.6664H20.2949C21.3886 18.6664 22.3354 17.9068 22.5727 16.8393L24.1845 9.5862C24.3464 8.85759 23.792 8.16643 23.0456 8.16643H6.81326"
          stroke="#0C0310" stroke-width="1.2" stroke-linecap="round"/>
    <path d="M11.0833 25.6667C11.7276 25.6667 12.25 25.1443 12.25 24.5C12.25 23.8557 11.7276 23.3333 11.0833 23.3333C10.439 23.3333 9.91663 23.8557 9.91663 24.5C9.91663 25.1443 10.439 25.6667 11.0833 25.6667Z"
          stroke="#0C0310" stroke-width="1.2" stroke-linecap="round"/>
    <path d="M19.25 25.6667C19.8944 25.6667 20.4167 25.1443 20.4167 24.5C20.4167 23.8557 19.8944 23.3333 19.25 23.3333C18.6057 23.3333 18.0834 23.8557 18.0834 24.5C18.0834 25.1443 18.6057 25.6667 19.25 25.6667Z"
          stroke="#0C0310" stroke-width="1.2" stroke-linecap="round"/>
</svg>
